# xmcd
# 
# Track frame offsets:
#     150
#     22687
#     40037
#     62012
#     80514
#     95179
#     117479
#     140267
#     164462
# 
# Disc length: 2380
# 
# Revision: 0
# Processed by: cddbd v1.5.2PL0 Copyright (c) Steve Scherf et al.
# Submitted via: fre:ac v1.0.17
# 
DISCID=6f094a09
DTITLE=Jeff Beck with Terry Bozzio and Tony Hymas - Jeff Beck's Guitar Shop
DYEAR=1989
DGENRE=Rock
TTITLE0=Guitar Shop
TTITLE1=Savoy
TTITLE2=Behind The Veil
TTITLE3=Big Block
TTITLE4=Where Were You
TTITLE5=Stand On It
TTITLE6=Day In The House
TTITLE7=Two Rivers
TTITLE8=Sling Shot
EXTD=YEAR: 1989
EXTT0=
EXTT1=
EXTT2=
EXTT3=
EXTT4=
EXTT5=
EXTT6=
EXTT7=
EXTT8=
PLAYORDER=
